SplineFontDB: 3.0
FontName: Untitled1
FullName: Untitled1
FamilyName: Untitled1
Weight: Medium
Copyright: Created by Coos Baakman,,, with FontForge 2.0 (http://fontforge.sf.net)
UComments: "2017-6-29: Created."
Version: 001.000
ItalicAngle: 0
UnderlinePosition: -100
UnderlineWidth: 50
Ascent: 800
Descent: 200
InvalidEm: 0
LayerCount: 2
Layer: 0 0 "Back" 1
Layer: 1 0 "Fore" 0
XUID: [1021 541 263193001 6047630]
OS2Version: 0
OS2_WeightWidthSlopeOnly: 0
OS2_UseTypoMetrics: 1
CreationTime: 1498731037
ModificationTime: 1500064105
OS2TypoAscent: 0
OS2TypoAOffset: 1
OS2TypoDescent: 0
OS2TypoDOffset: 1
OS2TypoLinegap: 0
OS2WinAscent: 0
OS2WinAOffset: 1
OS2WinDescent: 0
OS2WinDOffset: 1
HheadAscent: 0
HheadAOffset: 1
HheadDescent: 0
HheadDOffset: 1
OS2Vendor: 'PfEd'
Lookup: 258 0 0 "kerning" { "kerning" [150,15,0] "kerning-1" [150,15,0] } ['    ' ('DFLT' <'dflt' > 'latn' <'dflt' > ) ]
DEI: 91125
KernClass2: 13 6 "kerning"
 1 i
 1 f
 1 P
 22 parenright B D J O S U
 28 exclam one E G H I K M N d l
 1 A
 3 V W
 1 t
 29 a b c e h k m n o p r s u x z
 1 C
 5 v w y
 1 T
 1 j
 1 a
 13 c d e g o s q
 17 u m n w x y z r p
 16 zero six C G O Q
 0 {} 0 {} 0 {} 0 {} 0 {} 0 {} 0 {} -213 {} 0 {} 0 {} 0 {} 0 {} 0 {} 0 {} -120 {} -80 {} -27 {} 0 {} 0 {} -241 {} -85 {} 23 {} 90 {} 0 {} 0 {} -133 {} 0 {} 0 {} 0 {} 0 {} 0 {} -47 {} -23 {} 8 {} 72 {} 0 {} 0 {} 0 {} -53 {} -40 {} -67 {} -40 {} 0 {} -216 {} -144 {} -67 {} -65 {} -40 {} 0 {} -267 {} 0 {} 0 {} 0 {} 0 {} 0 {} -187 {} -40 {} 0 {} 0 {} 0 {} 0 {} -289 {} -90 {} -50 {} -62 {} -80 {} 0 {} 0 {} -93 {} -53 {} 0 {} 0 {} 0 {} -173 {} -187 {} -146 {} -133 {} 0 {}
Encoding: ISO8859-1
UnicodeInterp: none
NameList: Adobe Glyph List
DisplaySize: -24
AntiAlias: 1
FitToEm: 1
WinInfo: 0 38 7
Grid
0 486.8 m 5
 508 486.8 l 5
 508 0 l 5
 0 0 l 5
 0 486.8 l 5
EndSplineSet
BeginChars: 256 97

StartChar: A
Encoding: 65 65 0
Width: 699
VWidth: 0
Flags: W
HStem: 18 21G<528.767 665.843>
LayerCount: 2
Fore
SplineSet
416.014 596.84 m 25
 291.467 362.605 l 25
 435.467 380.605 l 25
 416.014 596.84 l 25
671.004 18 m 9
 480.172 44.833 l 25
 471.869 203.535 l 25
 204.977 224.235 l 25
 162.77 42.5332 l 25
 48.9355 21.833 l 25
 11.9297 118.434 l 25
 67.6484 284.036 l 25
 370.506 773.941 l 25
 512.365 744.041 l 17
 575.004 390 l 1
 671.004 18 l 9
EndSplineSet
Validated: 1
EndChar

StartChar: B
Encoding: 66 66 1
Width: 526
VWidth: 0
Flags: W
HStem: 18 21G<85.4286 284.952> 768 20G<45.2381 410>
LayerCount: 2
Fore
SplineSet
188 344 m 25
 180 168 l 25
 368 198 l 25
 352 314 l 25
 188 344 l 25
178 634 m 25
 186 466 l 25
 348 496 l 25
 360 608 l 25
 178 634 l 25
18 746 m 25
 70 788 l 25
 410 772 l 25
 500 662 l 25
 504 468 l 25
 454 426 l 25
 506 382 l 25
 492 94 l 25
 462 60 l 25
 124 18 l 25
 16 74 l 25
 38 404 l 25
 18 746 l 25
EndSplineSet
Validated: 1
EndChar

StartChar: v
Encoding: 118 118 2
Width: 526
VWidth: 0
Flags: W
HStem: 454 20G<320 498.802>
LayerCount: 2
Fore
SplineSet
8 462 m 29
 184 466 l 29
 248 214 l 29
 320 470 l 29
 508 474 l 29
 290 0 l 29
 150 18 l 29
 8 462 l 29
EndSplineSet
Validated: 1
EndChar

StartChar: C
Encoding: 67 67 3
Width: 642
VWidth: 0
Flags: W
HStem: 18 21G<206.815 520>
LayerCount: 2
Fore
SplineSet
548 696 m 13
 610 648 l 29
 476.58 528.459 l 29
 454 578 l 21
 350.773 631.211 l 5
 231.418 600.019 l 13
 203.999 565.156 l 29
 186.257 240.386 l 29
 283.031 168.825 l 29
 500.774 194.514 l 29
 548 88 l 29
 520 28 l 29
 232 18 l 29
 28 180 l 29
 46 618 l 29
 146 748 l 21
 400 778.514 l 5
 548 696 l 13
EndSplineSet
Validated: 1
EndChar

StartChar: D
Encoding: 68 68 4
Width: 630
VWidth: 0
Flags: W
HStem: 20 165<207 310>
LayerCount: 2
Fore
SplineSet
191 625.8 m 25
 185 442 l 25
 207 185 l 25
 310 186.8 l 25
 404 252.8 l 25
 452 459.8 l 25
 338 609.8 l 25
 191 625.8 l 25
24 732 m 25
 76 782 l 25
 502 738 l 25
 604 604 l 25
 564 162 l 25
 338 20 l 25
 22 12 l 25
 48 444 l 25
 24 732 l 25
EndSplineSet
Validated: 1
EndChar

StartChar: E
Encoding: 69 69 5
Width: 508
VWidth: 0
Flags: W
HStem: 642 154<256.4 493> 652 134<155 349.8>
LayerCount: 2
Fore
SplineSet
11 786 m 25x40
 495 796 l 25
 493 642 l 25x80
 155 652 l 25
 161 494 l 25
 501 528 l 25
 503 346 l 25
 165 358 l 25
 183 134 l 25
 499 164 l 25
 469 20 l 25
 47 26 l 25
 11 786 l 25x40
EndSplineSet
Validated: 1
EndChar

StartChar: F
Encoding: 70 70 6
Width: 508
VWidth: 0
Flags: W
HStem: 358 136<166 236.667> 638 154<315 474> 652 130<156 315>
VStem: 16.5 136.5<36 193.5> 32.5 133.5<238.5 358>
LayerCount: 2
Fore
SplineSet
153 25 m 29xb0
 16.5 36 l 29xb0
 32.5 396 l 29
 4.5 782 l 29xa8
 476 792 l 29
 474 638 l 29xc8
 156 652 l 29
 162 494 l 29
 482 524 l 29
 484 342 l 29
 166 358 l 29xa8
 153 25 l 29xb0
EndSplineSet
Validated: 1
EndChar

StartChar: G
Encoding: 71 71 7
Width: 642
VWidth: 0
Flags: W
HStem: 18 150.825<283.031 390.817>
LayerCount: 2
Fore
SplineSet
283.031 168.825 m 29
 407 166.148 l 29
 423 280.148 l 29
 287 266.149 l 29
 313 416.149 l 29
 575 404.148 l 29
 553 32.1484 l 29
 232 18 l 29
 28 180 l 29
 46 618 l 29
 146 748 l 21
 400 778.514 l 5
 548 696 l 13
 610 648 l 29
 476.58 528.459 l 29
 454 578 l 21
 350.773 631.211 l 5
 231.418 600.019 l 13
 203.999 565.156 l 29
 186.257 240.386 l 29
 283.031 168.825 l 29
EndSplineSet
Validated: 1
EndChar

StartChar: H
Encoding: 72 72 8
Width: 600
VWidth: 0
Flags: W
VStem: 12 166<650.9 772> 408 156<27.1923 135.692>
LayerCount: 2
Fore
SplineSet
12 786 m 29
 178 772 l 29
 192 456 l 29
 402 478 l 29
 406 794 l 29
 580 786 l 29
 538 428 l 29
 564 28 l 29
 408 10 l 29
 392 342 l 29
 176 344 l 29
 148 12 l 29
 10 20 l 29
 32 400 l 29
 12 786 l 29
EndSplineSet
Validated: 1
EndChar

StartChar: I
Encoding: 73 73 9
Width: 240
VWidth: 0
Flags: W
HStem: 16 21G<20 194> 768 20G<18 222>
VStem: 18 204
LayerCount: 2
Fore
SplineSet
18 788 m 29
 222 788 l 29
 176 366 l 29
 194 16 l 29
 20 16 l 29
 44 456 l 29
 18 788 l 29
EndSplineSet
Validated: 1
EndChar

StartChar: J
Encoding: 74 74 10
Width: 534
VWidth: 0
Flags: W
LayerCount: 2
Fore
SplineSet
336 780 m 29
 510 764 l 29
 512 324 l 29
 388 80 l 29
 170 14 l 29
 18 12 l 29
 28 164 l 29
 178 148 l 29
 308 206 l 29
 384 338 l 29
 336 780 l 29
EndSplineSet
Validated: 1
EndChar

StartChar: K
Encoding: 75 75 11
Width: 622
VWidth: 0
Flags: W
HStem: 16 21G<20 194> 17.2002 21G<433.907 608> 768 20G<18 222 459.86 608>
LayerCount: 2
Fore
SplineSet
179.127 305.2 m 5x60
 194 16 l 13
 20 16 l 29xa0
 44 456 l 29
 18 788 l 29
 222 788 l 21
 192 501.2 l 13
 480 787.2 l 29
 608 785.2 l 29
 586 605.2 l 29
 302 391.2 l 21
 466 293.2 l 5
 608 129.2 l 13
 608 31.2002 l 29
 446 17.2002 l 21
 342 189.2 l 5
 179.127 305.2 l 5x60
EndSplineSet
Validated: 1
EndChar

StartChar: L
Encoding: 76 76 12
Width: 562
VWidth: 0
Flags: W
HStem: 16 21G<21.0909 270> 768 20G<18 222>
LayerCount: 2
Fore
SplineSet
18 788 m 29
 222 788 l 29
 176 366 l 21
 186.533 161.2 l 5
 514 199.2 l 5
 540 11.2002 l 5
 270 29.2002 l 5
 20 16 l 13
 44 456 l 29
 18 788 l 29
EndSplineSet
Validated: 1
EndChar

StartChar: M
Encoding: 77 77 13
Width: 716
VWidth: 0
Flags: HW
VStem: 497 188<25.3521 133.692>
LayerCount: 2
Fore
SplineSet
12 786 m 25
 212 772 l 25
 315 564.6 l 25
 339 568.6 l 25
 487 792.6 l 25
 701 784 l 25
 659 426 l 25
 685 26 l 25
 497 8.59961 l 25
 496 339.199 l 17
 507.542364857 553 l 1
 492 555 l 1
 409 284.6 l 1
 275 284.6 l 1
 200.443858327 523 l 1
 186 527 l 1
 180 340.6 l 1
 171 12 l 25
 10 20 l 25
 32 400 l 25
 12 786 l 25
EndSplineSet
EndChar

StartChar: N
Encoding: 78 78 14
Width: 570
VWidth: 0
Flags: W
HStem: 16 21G<342.885 524> 768 20G<377.919 554>
VStem: 10 150<18 243> 20 126<243 468> 376 150<292 402.143>
LayerCount: 2
Fore
SplineSet
10 10 m 25xe8
 20 404 l 25xd8
 14 790 l 25
 160 786 l 25xe8
 276 542 l 25
 376 292 l 25
 378 788 l 25
 554 780 l 25
 526 320 l 25
 524 18 l 25
 352 16 l 25
 146 468 l 25xd8
 160 18 l 25
 10 10 l 25xe8
EndSplineSet
Validated: 1
EndChar

StartChar: O
Encoding: 79 79 15
Width: 642
VWidth: 0
Flags: W
HStem: 18 21G<206.815 520>
VStem: 475 148<250.149 426.53> 476.58 133.42<389.619 528.459>
LayerCount: 2
Fore
SplineSet
407 180.148 m 29xa0
 475 250.149 l 29xc0
 476.58 528.459 l 29
 454 578 l 21
 350.773 631.211 l 5
 231.418 600.019 l 13
 203.999 565.156 l 29
 186.257 240.386 l 29
 283.031 168.825 l 29
 407 180.148 l 29xa0
610 648 m 17xa0
 623 168.149 l 25xc0
 520 28 l 25
 232 18 l 25
 28 180 l 25
 46 618 l 25
 146 748 l 17
 400 778.514 l 1
 548 696 l 9
 610 648 l 17xa0
EndSplineSet
Validated: 1
EndChar

StartChar: P
Encoding: 80 80 16
Width: 520
VWidth: 0
Flags: W
HStem: 18 21G<30.0353 169> 768 20G<45.2381 410>
LayerCount: 2
Fore
SplineSet
178 634 m 25
 186 466 l 25
 348 496 l 25
 360 608 l 25
 178 634 l 25
124 18 m 29
 15 41.2002 l 29
 38 404 l 29
 18 746 l 29
 70 788 l 29
 410 772 l 29
 500 662 l 29
 499 433.2 l 29
 421 359.2 l 29
 179 351.2 l 29
 169 35.2 l 29
 124 18 l 29
EndSplineSet
Validated: 1
EndChar

StartChar: Q
Encoding: 81 81 17
Width: 638
VWidth: 0
Flags: W
HStem: 18 21G<206.815 356.514>
LayerCount: 2
Fore
SplineSet
381.5 186.148 m 21
 345.5 236.148 l 5
 437.5 328.148 l 5
 479.5 284.148 l 13
 476.58 528.459 l 29
 454 578 l 21
 350.773 631.211 l 5
 231.418 600.019 l 13
 203.999 565.156 l 29
 186.257 240.386 l 29
 283.031 168.825 l 29
 381.5 186.148 l 21
669.5 110.148 m 1
 535.5 -23.8516 l 1
 469.5 56.1484 l 9
 232 18 l 25
 28 180 l 25
 46 618 l 25
 146 748 l 17
 400 778.514 l 1
 548 696 l 9
 615.5 582.148 l 17
 595.5 188.148 l 17
 669.5 110.148 l 1
EndSplineSet
Validated: 1
EndChar

StartChar: R
Encoding: 82 82 18
Width: 520
VWidth: 0
Flags: W
HStem: 18 21G<30.0353 169> 768 20G<45.2381 410>
LayerCount: 2
Fore
SplineSet
178 634 m 25
 186 466 l 25
 348 496 l 25
 360 608 l 25
 178 634 l 25
124 18 m 25
 15 41.2002 l 25
 38 404 l 25
 18 746 l 25
 70 788 l 25
 410 772 l 25
 500 662 l 25
 499 433.2 l 25
 421 359.2 l 17
 371.5 349.2 l 1
 471.5 227.2 l 1
 541.5 155.2 l 1
 541.5 19.2002 l 1
 415.5 19.2002 l 1
 339.5 149.2 l 1
 225.5 331.2 l 1
 181 329.2 l 9
 169 35.2 l 25
 124 18 l 25
EndSplineSet
Validated: 1
EndChar

StartChar: S
Encoding: 83 83 19
Width: 536
VWidth: 0
Flags: W
HStem: 12 182<40 140.444>
LayerCount: 2
Fore
SplineSet
514 786 m 29
 502 606 l 29
 202 634 l 29
 192 506 l 29
 452 442 l 29
 516 306 l 29
 480 90 l 29
 336 30 l 29
 16 12 l 29
 40 194 l 29
 374 178 l 29
 338 344 l 29
 138 364 l 29
 36 444 l 29
 30 662 l 29
 120 748 l 29
 514 786 l 29
EndSplineSet
Validated: 1
EndChar

StartChar: T
Encoding: 84 84 20
Width: 594
VWidth: 0
Flags: W
HStem: 640 140<492.111 580> 652 140<16 202>
LayerCount: 2
Fore
SplineSet
16 792 m 25x40
 580 780 l 25
 580 640 l 25x80
 354 658 l 25
 368 14 l 25
 196 20 l 17
 228 348 l 1
 202 656 l 9
 14 652 l 25
 16 792 l 25x40
EndSplineSet
Validated: 1
EndChar

StartChar: U
Encoding: 85 85 21
Width: 562
VWidth: 0
Flags: W
HStem: 16 21G<199.81 338.143>
VStem: 10 160<583.5 770> 12 142<318 524.5> 390 160<637.5 734>
LayerCount: 2
Fore
SplineSet
10 770 m 29xd0
 170 790 l 29xd0
 154 318 l 29
 224 170 l 29
 334 168 l 29
 382 338 l 29
 390 734 l 29
 550 748 l 29
 522 306 l 29
 450 72 l 29
 276 16 l 29
 116 58 l 29
 12 280 l 29xb0
 10 770 l 29xd0
EndSplineSet
Validated: 1
EndChar

StartChar: V
Encoding: 86 86 22
Width: 530
VWidth: 0
Flags: HW
HStem: 768 20G<338 506.395>
LayerCount: 2
Fore
SplineSet
276.242 295.2 m 1
 338 782 l 9
 510 788 l 25
 426 322 l 25
 346 22 l 25
 194 12 l 25
 100 296 l 25
 12 786 l 25
 178 764 l 17
 261.617 293.2 l 1
 276.242 295.2 l 1
EndSplineSet
EndChar

StartChar: W
Encoding: 87 87 23
Width: 830
VWidth: 0
Flags: W
HStem: 16 21G<537.273 693.299> 461.2 20G<368.538 553.223>
LayerCount: 2
Fore
SplineSet
426 322 m 25
 346 22 l 25
 194 12 l 25
 100 296 l 25
 12 786 l 25
 178 764 l 25
 270 246 l 25
 315 455.2 l 25
 547 481.2 l 25
 604 298 l 25
 638 754 l 25
 818 792 l 25
 690 16 l 25
 522 38 l 25
 426 322 l 25
EndSplineSet
Validated: 1
EndChar

StartChar: X
Encoding: 88 88 24
Width: 590
VWidth: 0
Flags: W
HStem: 18 21G<416 575.524>
LayerCount: 2
Fore
SplineSet
9 782 m 25
 178 776 l 25
 288 534 l 25
 374 762 l 25
 530 780 l 25
 552 706 l 25
 384 418 l 25
 574 102 l 25
 576 18 l 25
 416 22 l 25
 288 310 l 25
 190 22 l 25
 46 10 l 25
 44 182 l 25
 204 414 l 25
 31 664 l 29
 9 782 l 25
EndSplineSet
Validated: 1
EndChar

StartChar: Y
Encoding: 89 89 25
Width: 590
VWidth: 0
Flags: W
HStem: 16 21G<213 393>
VStem: 213 180<16 196> 227 157<196 376>
LayerCount: 2
Fore
SplineSet
384 418 m 29xa0
 393 16 l 29
 213 16 l 29xc0
 227 376 l 29
 15 698 l 29
 9 782 l 29
 178 776 l 29
 288 534 l 29
 374 762 l 29
 571 780 l 29
 552 706 l 29
 384 418 l 29xa0
EndSplineSet
Validated: 1
EndChar

StartChar: Z
Encoding: 90 90 26
Width: 568
VWidth: 0
Flags: W
HStem: 16 21G<36.7368 516>
LayerCount: 2
Fore
SplineSet
12 790 m 29
 500 764 l 29
 534 740 l 29
 250 146 l 29
 548 218 l 29
 516 26 l 29
 42 16 l 29
 22 92 l 29
 332 622 l 29
 54 644 l 29
 12 790 l 29
EndSplineSet
Validated: 1
EndChar

StartChar: a
Encoding: 97 97 27
Width: 538
VWidth: 0
Flags: W
HStem: -10 144<257.056 358.903> 341 130<223.1 346> 343 138<137 337.9>
LayerCount: 2
Fore
SplineSet
362 165 m 25x80
 262 196 l 25
 212 142 l 25
 358 134 l 25
 362 165 l 25x80
294 -8 m 1
 104 26 l 9
 58 118 l 25
 80 260 l 25
 158 310 l 25
 364 292 l 25
 346 341 l 25xc0
 89 343 l 25
 137 481 l 25xa0
 424 471 l 25xc0
 508 381 l 25
 498 244 l 17
 518 0 l 1
 348 -10 l 1
 294 -8 l 1
EndSplineSet
EndChar

StartChar: b
Encoding: 98 98 28
Width: 548
VWidth: 0
Flags: W
HStem: 14 136<180 342>
LayerCount: 2
Fore
SplineSet
184 316 m 25
 180 150 l 25
 342 150 l 25
 380 296 l 25
 184 316 l 25
8 792 m 25
 178 788 l 25
 172 470 l 25
 436 470 l 25
 530 346 l 25
 508 102 l 25
 372 12 l 25
 34 14 l 25
 16 48 l 25
 32 420 l 25
 8 792 l 25
EndSplineSet
Validated: 1
EndChar

StartChar: d
Encoding: 100 100 29
Width: 548
VWidth: 0
Flags: W
HStem: 12 138<199 361>
LayerCount: 2
Fore
SplineSet
357 316 m 25
 161 296 l 25
 199 150 l 25
 361 150 l 25
 357 316 l 25
533 792 m 29
 509 420 l 29
 525 48 l 29
 507 14 l 29
 169 12 l 29
 33 102 l 29
 11 346 l 29
 105 470 l 29
 369 470 l 29
 363 788 l 29
 533 792 l 29
EndSplineSet
Validated: 1
EndChar

StartChar: c
Encoding: 99 99 30
Width: 495
VWidth: 0
Flags: W
HStem: 12 138<199 373.128> 466.8 20G<105 441>
LayerCount: 2
Fore
SplineSet
318 486.8 m 29
 441 468.8 l 29
 467 450.8 l 29
 475 342.8 l 29
 453 314.8 l 29
 318 326.8 l 29
 161 296 l 29
 199 150 l 29
 321 150 l 21
 461 168.8 l 29
 470 48 l 29
 452 14 l 29
 169 12 l 29
 33 102 l 29
 11 346 l 29
 105 470 l 29
 318 486.8 l 29
EndSplineSet
Validated: 1
EndChar

StartChar: e
Encoding: 101 101 31
Width: 495
VWidth: 0
Flags: HW
HStem: 12 138<199 373.128> 238 102<298.647 349> 466.8 20G<105 441>
LayerCount: 2
Fore
SplineSet
321 403 m 1
 214 400 l 5
 160 343 l 1
 349 340 l 25
 321 403 l 1
318 486.8 m 25
 441 468.8 l 25
 467 450.8 l 25
 471 271 l 25
 449 243 l 25
 315 238 l 25
 176 221 l 25
 199 150 l 25
 321 150 l 17
 461 168.8 l 25
 470 48 l 25
 452 14 l 25
 169 12 l 25
 33 102 l 25
 11 346 l 25
 105 470 l 25
 318 486.8 l 25
EndSplineSet
EndChar

StartChar: f
Encoding: 102 102 32
Width: 416
VWidth: 0
Flags: W
HStem: 638 150<323 402.032>
VStem: 0 166<0 168> 18 140<486.8 556.4>
LayerCount: 2
Fore
SplineSet
0 0 m 25xc0
 18 432 l 25
 24 678 l 25
 194 792 l 25
 420 788 l 25
 436 762 l 25
 400 638 l 25
 224 654 l 25
 172 626 l 25
 158 486.8 l 25
 326 486.8 l 25
 302 352 l 25
 158 388 l 25xa0
 166 0 l 25
 0 0 l 25xc0
EndSplineSet
Validated: 1
EndChar

StartChar: g
Encoding: 103 103 33
Width: 548
VWidth: 0
Flags: W
HStem: -188 146<30.0411 130.458> 12 138<199 361> 450 20G<89.8387 425>
LayerCount: 2
Fore
SplineSet
357 316 m 25
 161 296 l 25
 199 150 l 25
 361 150 l 25
 357 316 l 25
509 420 m 25
 525 48 l 25
 518 -92 l 17
 446 -186 l 1
 11 -188 l 1
 31 -42 l 1
 372 -66 l 1
 378 13.2367 l 1
 169 12 l 9
 33 102 l 25
 11 346 l 25
 105 470 l 25
 369 470 l 25
 509 420 l 25
EndSplineSet
Validated: 1
EndChar

StartChar: h
Encoding: 104 104 34
Width: 502
VWidth: 0
Flags: W
VStem: 10 152<661.111 760> 12 168<26 171> 28 138<222.875 316>
LayerCount: 2
Fore
SplineSet
12 8 m 25x40
 28 390 l 25x20
 10 760 l 25
 42 792 l 25
 162 784 l 25x80
 180 468 l 25x40
 382 434 l 25
 470 352 l 25
 488 16 l 25
 322 14 l 25
 324 244 l 25
 166 316 l 25x20
 180 26 l 25
 12 8 l 25x40
EndSplineSet
Validated: 1
EndChar

StartChar: i
Encoding: 105 105 35
Width: 210
VWidth: 0
Flags: W
VStem: 12 176<12 162.345>
LayerCount: 2
Fore
SplineSet
40 580 m 25
 20 736 l 25
 172 746 l 25
 160 592 l 25
 40 580 l 25
12 12 m 25
 34 486.8 l 25
 166 488.8 l 25
 188 10 l 25
 12 12 l 25
EndSplineSet
Validated: 1
EndChar

StartChar: j
Encoding: 106 106 36
Width: 452
VWidth: 0
Flags: W
VStem: 268 144<12 163.073>
LayerCount: 2
Fore
SplineSet
296 580 m 25
 276 736 l 25
 428 746 l 25
 416 592 l 25
 296 580 l 25
268 12 m 9
 290 486.8 l 25
 422 488.8 l 25
 412 -76 l 17
 308 -188 l 1
 12 -184 l 1
 22 10 l 1
 204 -42 l 1
 268 12 l 9
EndSplineSet
Validated: 1
EndChar

StartChar: k
Encoding: 107 107 37
Width: 482
VWidth: 0
Flags: W
HStem: 16 21G<308.885 458>
VStem: 12 160<364.8 780>
LayerCount: 2
Fore
SplineSet
12 782 m 29
 172 780 l 29
 170 364.8 l 29
 354 504 l 29
 434 484 l 29
 444 372 l 29
 262 296 l 29
 462 76 l 29
 458 18 l 29
 326 16 l 29
 148 224 l 29
 164 12 l 29
 12 10 l 29
 18 408 l 29
 12 782 l 29
EndSplineSet
Validated: 1
EndChar

StartChar: l
Encoding: 108 108 38
Width: 220
VWidth: 0
Flags: W
HStem: 15.2002 21G<20 200.518> 768 20G<19.5663 184>
LayerCount: 2
Fore
SplineSet
18 788 m 29
 184 785.2 l 29
 176 366 l 29
 202 15.2002 l 29
 20 16 l 29
 44 456 l 29
 18 788 l 29
EndSplineSet
Validated: 1
EndChar

StartChar: m
Encoding: 109 109 39
Width: 774
VWidth: 0
Flags: W
HStem: 16 21G<594.741 724>
VStem: 320 132<191.889 300>
LayerCount: 2
Fore
SplineSet
12 10 m 25
 28 482.8 l 25
 60 490 l 25
 642 466 l 25
 736 300 l 25
 758 30 l 25
 724 18 l 25
 598 16 l 25
 554 286 l 25
 452 300 l 25
 470 22 l 25
 304 14 l 25
 320 306 l 25
 174 320 l 25
 198 10 l 25
 12 10 l 25
EndSplineSet
Validated: 1
EndChar

StartChar: n
Encoding: 110 110 40
Width: 487
VWidth: 0
Flags: W
HStem: 16 21G<302.741 432> 466.8 20G<35.4587 339.808>
LayerCount: 2
Fore
SplineSet
350 466 m 25
 444 300 l 25
 466 30 l 25
 432 18 l 25
 306 16 l 25
 262 286 l 25
 160 300 l 25
 178 22 l 25
 12 14 l 25
 31 465 l 25
 85 486.8 l 25
 350 466 l 25
EndSplineSet
Validated: 1
EndChar

StartChar: o
Encoding: 111 111 41
Width: 495
VWidth: 0
Flags: W
HStem: 466.8 20G<105 373.684>
VStem: 338 139<158.32 279.32>
LayerCount: 2
Fore
SplineSet
477 89.3203 m 25
 404 11.3203 l 25
 169 12 l 25
 33 102 l 25
 11 346 l 25
 105 470 l 25
 318 486.8 l 25
 414 452.32 l 25
 483 356.32 l 25
 477 89.3203 l 25
300 322.32 m 9
 162 316.32 l 25
 199 150 l 25
 338 158.32 l 17
 335.031 279.32 l 1
 300 322.32 l 9
EndSplineSet
Validated: 1
EndChar

StartChar: zero
Encoding: 48 48 42
Width: 535
VWidth: 0
Flags: W
VStem: 13.625 154.81<235.6 380.118> 28.9248 152.026<417.7 570.178> 372.143 147.232<245.657 472.767> 373.257 135.068<343.38 554.797>
LayerCount: 2
Fore
SplineSet
324.169 173.543 m 29x80
 372.143 245.657 l 29xa0
 373.257 532.372 l 29
 357.326 583.409 l 21
 284.5 638.228 l 5
 200.295 606.094 l 13
 180.951 570.178 l 29x50
 168.435 235.6 l 29
 236.708 161.877 l 29
 324.169 173.543 l 29x80
508.325 650.398 m 17x50
 519.375 165.749 l 25
 431.825 24.1982 l 25
 187.025 14.0986 l 25
 13.625 177.719 l 25xa0
 28.9248 620.099 l 25
 113.925 751.398 l 17
 329.825 782.218 l 1
 455.625 698.879 l 9
 508.325 650.398 l 17x50
EndSplineSet
Validated: 1
EndChar

StartChar: p
Encoding: 112 112 43
Width: 548
VWidth: 0
Flags: W
HStem: 335.6 138<180 342>
LayerCount: 2
Fore
SplineSet
184 169.6 m 25
 380 189.6 l 25
 342 335.6 l 25
 180 335.6 l 25
 184 169.6 l 25
8 -192.4 m 25
 32 65.5996 l 25
 16 437.6 l 25
 34 471.6 l 25
 372 473.6 l 25
 508 383.6 l 25
 530 139.6 l 25
 436 15.5996 l 25
 172 15.5996 l 25
 178 -188.4 l 25
 8 -192.4 l 25
EndSplineSet
Validated: 1
EndChar

StartChar: q
Encoding: 113 113 44
Width: 548
VWidth: 0
Flags: W
HStem: 333 136<199 361>
LayerCount: 2
Fore
SplineSet
357 167 m 25
 361 333 l 25
 199 333 l 25
 161 187 l 25
 357 167 l 25
533 -195 m 25
 363 -191 l 25
 369 13 l 25
 105 13 l 25
 11 137 l 25
 33 381 l 25
 169 471 l 25
 507 469 l 25
 525 435 l 25
 509 63 l 25
 533 -195 l 25
EndSplineSet
Validated: 1
EndChar

StartChar: r
Encoding: 114 114 45
Width: 490
VWidth: 0
Flags: W
VStem: 12 170<10 261> 24 134<388 486.8>
LayerCount: 2
Fore
SplineSet
12 0 m 25x80
 24 486.8 l 25
 160 496 l 25
 158 388 l 25x40
 279 486.8 l 25
 435 504 l 25
 471 323 l 25
 317 313 l 25
 178 261 l 25
 182 10 l 25
 12 0 l 25x80
EndSplineSet
Validated: 1
EndChar

StartChar: s
Encoding: 115 115 46
Width: 518
VWidth: 0
Flags: W
HStem: 8.01953 125.58<47.3604 132.873> 336.88 153.2<394.866 491.406>
LayerCount: 2
Fore
SplineSet
502.4 490.08 m 29
 490.88 336.88 l 29
 225.88 356.2 l 29
 216.28 329.88 l 29
 442.88 285.72 l 29
 504.32 173.88 l 29
 478 52 l 29
 339.76 10.6006 l 29
 24.3203 8.01953 l 29
 47.3604 133.6 l 29
 321 156 l 29
 296 184 l 29
 139 197.801 l 29
 43.5195 269.1 l 29
 37.7598 404.52 l 29
 122 476 l 29
 502.4 490.08 l 29
EndSplineSet
Validated: 1
EndChar

StartChar: t
Encoding: 116 116 47
Width: 416
VWidth: 0
Flags: W
HStem: 362 134.8<200 299.246>
VStem: 14 140<268 362 486.8 544.9>
LayerCount: 2
Fore
SplineSet
12 686 m 25
 178 686 l 25
 158 486.8 l 25
 298 496.8 l 25
 322 362 l 25
 154 362 l 25
 168 174 l 25
 220 146 l 25
 360 162 l 25
 396 38 l 25
 380 12 l 25
 190 8 l 25
 20 122 l 25
 14 416.8 l 25
 12 686 l 25
EndSplineSet
Validated: 1
EndChar

StartChar: u
Encoding: 117 117 48
Width: 488
VWidth: 0
Flags: W
HStem: 456.64 20G<48 174.859 302 467.157>
VStem: 14 160<376.731 465.111>
LayerCount: 2
Fore
SplineSet
130 26.6396 m 25
 36 192.64 l 25
 14 462.64 l 25
 48 474.64 l 25
 174 476.64 l 25
 186 197.32 l 25
 323 149.32 l 25
 302 470.64 l 25
 468 478.64 l 25
 449 27.6396 l 25
 395 5.83984 l 25
 130 26.6396 l 25
EndSplineSet
Validated: 1
EndChar

StartChar: w
Encoding: 119 119 49
Width: 790
VWidth: 0
Flags: W
HStem: 454 20G<542.099 769>
LayerCount: 2
Fore
SplineSet
8 462 m 29
 184 466 l 29
 248 214 l 29
 299 372 l 29
 466 336 l 21
 491 192 l 5
 546 474 l 5
 769 460 l 5
 555 16 l 5
 398 0 l 5
 353.905 122 l 5
 290 0 l 13
 150 18 l 29
 8 462 l 29
EndSplineSet
Validated: 1
EndChar

StartChar: x
Encoding: 120 120 50
Width: 518
VWidth: 0
Flags: W
HStem: 448 20G<35.2807 189 287.812 475>
LayerCount: 2
Fore
SplineSet
10 8 m 29
 163 240 l 29
 23 468 l 29
 189 462 l 29
 249 340 l 29
 295 468 l 29
 475 468 l 29
 343 240 l 29
 505 8 l 29
 315 16 l 29
 251 142 l 29
 191 12 l 29
 10 8 l 29
EndSplineSet
Validated: 1
EndChar

StartChar: y
Encoding: 121 121 51
Width: 526
VWidth: 0
Flags: W
HStem: 454 20G<320 499.02>
LayerCount: 2
Fore
SplineSet
8 462 m 29
 184 466 l 29
 260 280 l 29
 320 470 l 29
 508 474 l 29
 213 -183 l 21
 45 -183 l 5
 162 84 l 13
 8 462 l 29
EndSplineSet
Validated: 1
EndChar

StartChar: z
Encoding: 122 122 52
Width: 516
VWidth: 0
Flags: W
HStem: 16 21G<38.8067 463> 335 146<39 118.8>
LayerCount: 2
Fore
SplineSet
-3 481 m 29
 432 456 l 29
 492 408 l 29
 257 161 l 29
 495 219 l 29
 463 27 l 29
 42 16 l 29
 23 135 l 29
 261 337 l 29
 39 335 l 29
 -3 481 l 29
EndSplineSet
Validated: 1
EndChar

StartChar: one
Encoding: 49 49 53
Width: 220
VWidth: 0
Flags: W
HStem: 15.2002 21G<20 200.518> 768 20G<19.5663 184>
LayerCount: 2
Fore
SplineSet
18 788 m 29
 184 785.2 l 29
 176 366 l 29
 202 15.2002 l 29
 20 16 l 29
 44 456 l 29
 18 788 l 29
EndSplineSet
Validated: 1
EndChar

StartChar: two
Encoding: 50 50 54
Width: 568
VWidth: 0
Flags: W
HStem: 16 21G<38.3758 516> 767 20G<149.545 402.895>
LayerCount: 2
Fore
SplineSet
15 687 m 29
 127 765 l 21
 375 787 l 5
 481 711 l 5
 489 453 l 5
 245 163 l 13
 548 218 l 29
 516 26 l 29
 42 16 l 29
 15 165 l 21
 355 501 l 5
 327 609 l 5
 213 601 l 13
 107 543 l 29
 15 687 l 29
EndSplineSet
Validated: 1
EndChar

StartChar: three
Encoding: 51 51 55
Width: 526
VWidth: 0
Flags: W
HStem: 18 21G<85.4286 284.952> 768 20G<45.2381 410>
LayerCount: 2
Fore
SplineSet
16 74 m 29
 68 213.2 l 29
 180 168 l 29
 368 198 l 29
 352 314 l 29
 188 344 l 21
 186 466 l 13
 348 496 l 29
 360 608 l 29
 178 634 l 21
 104 611.2 l 29
 18 746 l 29
 70 788 l 29
 410 772 l 29
 500 662 l 29
 504 468 l 29
 454 426 l 29
 506 382 l 29
 492 94 l 29
 462 60 l 29
 124 18 l 29
 16 74 l 29
EndSplineSet
Validated: 1
EndChar

StartChar: four
Encoding: 52 52 56
Width: 600
VWidth: 0
Flags: W
VStem: 12 166<650.9 772> 408 156<27.1923 135.692>
LayerCount: 2
Fore
SplineSet
176 344 m 29
 32 400 l 29
 12 786 l 29
 178 772 l 29
 192 456 l 29
 402 478 l 29
 403 764 l 29
 580 786 l 29
 538 428 l 29
 564 28 l 29
 408 10 l 29
 392 342 l 29
 176 344 l 29
EndSplineSet
Validated: 1
EndChar

StartChar: five
Encoding: 53 53 57
Width: 536
VWidth: 0
Flags: W
HStem: 12 182<40 140.444>
LayerCount: 2
Fore
SplineSet
465 773.4 m 29
 423 599.4 l 29
 202 634 l 29
 192 506 l 29
 445 486.801 l 29
 516 306 l 29
 480 90 l 29
 336 30 l 29
 16 12 l 29
 40 194 l 29
 374 178 l 29
 341 367.4 l 29
 67 342 l 29
 34 410 l 29
 53 723.4 l 29
 120 748 l 29
 465 773.4 l 29
EndSplineSet
Validated: 1
EndChar

StartChar: six
Encoding: 54 54 58
Width: 552
VWidth: 0
Flags: W
HStem: 16 21G<107 446.667> 646 128<221 395>
LayerCount: 2
Fore
SplineSet
165 330 m 29
 167 182 l 29
 353 154 l 29
 379 322 l 29
 165 330 l 29
57 706 m 25
 169 774 l 25
 405 774 l 25
 437 754 l 25
 395 640 l 25
 221 646 l 25
 185 618 l 25
 165.5 486.8 l 25
 438 468 l 25
 526 310 l 25
 516 76 l 25
 412 16 l 25
 107 24 l 25
 43 94 l 25
 19 370 l 25
 57 706 l 25
EndSplineSet
Validated: 1
EndChar

StartChar: seven
Encoding: 55 55 59
Width: 550
VWidth: 0
Flags: W
HStem: 609 163<27 196> 623 139<196 377>
LayerCount: 2
Fore
SplineSet
27 772 m 29x80
 509 762 l 29
 531 726 l 29
 335 12 l 29
 159 20 l 29
 377 623 l 29x40
 15 609 l 29
 27 772 l 29x80
EndSplineSet
Validated: 1
EndChar

StartChar: eight
Encoding: 56 56 60
Width: 526
VWidth: 0
Flags: W
HStem: 18 137.2<198 338> 314 182<180.778 348> 317.2 186<180 343.222>
LayerCount: 2
Fore
SplineSet
180 317.2 m 25xa0
 198 155.2 l 25
 338 159.2 l 25
 352 314 l 25xc0
 180 317.2 l 25xa0
198 643.2 m 25
 176 503.2 l 25xa0
 348 496 l 25
 332 635.2 l 25
 198 643.2 l 25
16 721.2 m 9
 132 789.2 l 25
 410 772 l 25
 500 662 l 25
 504 468 l 25
 454 426 l 25
 506 382 l 25
 492 94 l 25
 422 21.2002 l 25
 124 18 l 25
 16 74 l 17
 26 373.2 l 1
 96 407.2 l 1
 32 469.2 l 1
 16 721.2 l 9
EndSplineSet
Validated: 1
EndChar

StartChar: nine
Encoding: 57 57 61
Width: 552
VWidth: 0
Flags: W
HStem: 12 128<138.889 327.5> 12 119<85 273.611>
LayerCount: 2
Fore
SplineSet
383.5 456 m 29x00
 381.5 604 l 29
 195.5 632 l 29
 169.5 464 l 29
 383.5 456 l 29x00
491.5 80 m 25
 379.5 12 l 25x40
 143.5 12 l 25x80
 43 17 l 25
 85 131 l 25x40
 327.5 140 l 25x80
 363.5 168 l 25
 383 299.2 l 25
 110.5 318 l 25
 22.5 476 l 25
 32.5 710 l 25
 136.5 770 l 25
 441.5 762 l 25
 505.5 692 l 25
 529.5 416 l 25
 491.5 80 l 25
EndSplineSet
Validated: 1
EndChar

StartChar: colon
Encoding: 58 58 62
Width: 210
VWidth: 0
Flags: W
HStem: 13.1387 156.861<40.5234 161> 454 20G<25 175.442>
VStem: 20.1152 156.885
LayerCount: 2
Fore
SplineSet
161 170 m 25
 172.435 13.1387 l 25
 20.1152 11.4707 l 25
 40.5234 164.583 l 25
 161 170 l 25
45 308 m 25
 25 464 l 25
 177 474 l 25
 165 320 l 25
 45 308 l 25
EndSplineSet
Validated: 1
EndChar

StartChar: semicolon
Encoding: 59 59 63
Width: 210
VWidth: 0
Flags: W
HStem: 454 20G<25 175.442>
VStem: 25 151.058
LayerCount: 2
Fore
SplineSet
176.058 173 m 29
 150.058 -90 l 29
 51.0576 -94 l 29
 40.5234 164.583 l 29
 176.058 173 l 29
45 308 m 25
 25 464 l 25
 177 474 l 25
 165 320 l 25
 45 308 l 25
EndSplineSet
Validated: 1
EndChar

StartChar: grave
Encoding: 96 96 64
Width: 184
VWidth: 0
Flags: W
HStem: 439 267
VStem: 25.4658 135.534<635.192 697.583>
LayerCount: 2
Fore
SplineSet
161 706 m 25
 135 443 l 25
 36 439 l 25
 25.4658 697.583 l 25
 161 706 l 25
EndSplineSet
Validated: 1
EndChar

StartChar: less
Encoding: 60 60 65
Width: 398
VWidth: 0
Flags: W
HStem: 16 21G<227.014 382>
LayerCount: 2
Fore
SplineSet
16 219.6 m 25
 24 283.6 l 25
 299.5 501.6 l 25
 358 484 l 25
 368 372 l 25
 180 251.8 l 25
 386 76 l 25
 382 18 l 25
 250 16 l 25
 16 219.6 l 25
EndSplineSet
Validated: 1
EndChar

StartChar: greater
Encoding: 62 62 66
Width: 398
VWidth: 0
Flags: W
LayerCount: 2
Fore
SplineSet
377.5 206.84 m 29
 143.5 3.24023 l 29
 11.5 5.24023 l 29
 7.5 63.2402 l 29
 213.5 239.04 l 29
 25.5 359.24 l 29
 35.5 471.24 l 29
 94 488.84 l 29
 369.5 270.84 l 29
 377.5 206.84 l 29
EndSplineSet
Validated: 1
EndChar

StartChar: equal
Encoding: 61 61 67
Width: 544
VWidth: 0
Flags: W
HStem: 296 151<296.688 508> 312 119<25 228.812>
LayerCount: 2
Fore
SplineSet
0 191 m 1x00
 525 199 l 1
 508 28 l 1
 11 70 l 1
 0 191 l 1x00
25 431 m 5x40
 508 447 l 5
 523 296 l 5x80
 0 312 l 5
 25 431 l 5x40
EndSplineSet
Validated: 1
EndChar

StartChar: question
Encoding: 63 63 68
Width: 604
VWidth: 0
Flags: W
HStem: 0 121.148<268 372>
VStem: 427.743 158.257<424.534 561.156>
LayerCount: 2
Fore
SplineSet
266 121.148 m 25
 383 117.148 l 25
 409 23 l 17
 372 0 l 1
 268 0 l 1
 242 23 l 9
 266 121.148 l 25
84 692 m 17
 232 774.514 l 1
 486 744 l 9
 586 614 l 25
 586 364.148 l 25
 408 224.148 l 25
 388 182.148 l 25
 274 196.148 l 25
 254 242.148 l 25
 330.969 352.974 l 25
 427.743 424.534 l 25
 428.001 561.156 l 25
 400.582 596.019 l 17
 281.227 627.211 l 1
 178 574 l 9
 155.42 524.459 l 25
 22 644 l 25
 84 692 l 17
EndSplineSet
Validated: 1
EndChar

StartChar: at
Encoding: 64 64 69
Width: 798
VWidth: 0
Flags: W
HStem: 16 21G<363.588 555.174> 434 141<252 414> 435 130<324 414>
LayerCount: 2
Fore
SplineSet
494 210 m 25x80
 424 244 l 25
 374 166 l 25
 490 158 l 25
 494 210 l 25x80
252 575 m 9xc0
 492 565 l 25
 713 464 l 25
 779 262 l 17
 769 122 l 1
 705 78 l 1
 623 62 l 1
 503 16 l 1
 266 50 l 9
 220 142 l 25
 242 302 l 25
 320 376 l 17
 517 338 l 1
 601 280 l 1
 631 172 l 1
 625 286 l 1
 539 372 l 1
 414 435 l 9xa0
 249 434 l 17
 167 222 l 1
 205 14 l 1
 371 -34 l 1
 625 12 l 1
 729 -104 l 1
 401 -164 l 1
 97 -82 l 1
 13 222 l 1
 105 478 l 1
 252 575 l 9xc0
EndSplineSet
Validated: 1
EndChar

StartChar: exclam
Encoding: 33 33 70
Width: 254
VWidth: 0
Flags: W
VStem: 0 235<701.389 800>
LayerCount: 2
Fore
SplineSet
25 250 m 25
 0 800 l 25
 235 806 l 25
 199 268 l 25
 25 250 l 25
25 0 m 25
 9 194 l 25
 211 208 l 25
 173 0 l 25
 25 0 l 25
EndSplineSet
Validated: 1
EndChar

StartChar: quotedbl
Encoding: 34 34 71
Width: 368
VWidth: 0
Flags: W
HStem: 439 269
VStem: 36 121<445 509.74> 197.232 123<453.4 522.563>
LayerCount: 2
Fore
SplineSet
346 708 m 25
 320.232 453.4 l 25
 197.232 447.4 l 25
 196.232 707.4 l 25
 346 708 l 25
158.232 707.4 m 25
 157 445 l 25
 36 439 l 25
 10.2324 699.4 l 25
 158.232 707.4 l 25
EndSplineSet
Validated: 1
EndChar

StartChar: underscore
Encoding: 95 95 72
Width: 511
VWidth: 0
Flags: W
HStem: 0 122<293.5 437> 0 102<27 170.5>
LayerCount: 2
Fore
SplineSet
0 0 m 29x40
 27 102 l 29x40
 437 122 l 29x80
 489 0 l 29
 0 0 l 29x40
EndSplineSet
Validated: 1
EndChar

StartChar: numbersign
Encoding: 35 35 73
Width: 564
VWidth: 0
Flags: W
HStem: 96 138<235 329> 352 108<469 540.102> 448 20G<12.2157 67.2857>
VStem: 343 114<462 536>
LayerCount: 2
Fore
SplineSet
229 328 m 25x90
 235 234 l 25
 329 232 l 25
 339 328 l 25
 229 328 l 25x90
0 202 m 25
 83 226 l 25
 85 342 l 25
 9 366 l 25
 13 468 l 25
 89 440 l 25
 77 542.8 l 25
 193 534 l 25
 211 448 l 25xb0
 343 462 l 25
 339 546.8 l 25
 459 536 l 25
 457 454 l 25
 539 460 l 25
 556 352 l 25xd0
 469 348 l 25
 457 206 l 25
 538 206 l 25
 519 88 l 25
 457 98 l 25
 479 2 l 25
 363 2 l 25
 353 100 l 25
 205 96 l 25
 195 -10 l 25
 85 0 l 25
 93 100 l 25
 7 106 l 25
 0 202 l 25
EndSplineSet
Validated: 1
EndChar

StartChar: dollar
Encoding: 36 36 74
Width: 536
VWidth: 0
Flags: W
HStem: 72 182<41 186.75>
LayerCount: 2
Fore
SplineSet
514 743 m 13
 502 563 l 29
 202 591 l 29
 192 506 l 29
 452 442 l 29
 516 306 l 29
 481 150 l 29
 355 90 l 21
 367 -16 l 5
 183 -16 l 5
 211 80 l 5
 17 72 l 13
 41 254 l 29
 375 238 l 29
 338 344 l 29
 138 364 l 29
 36 444 l 29
 30 619 l 29
 120 705 l 21
 245 717.056 l 5
 227 794 l 5
 389 794 l 5
 377 729.787 l 5
 514 743 l 13
EndSplineSet
Validated: 1
EndChar

StartChar: percent
Encoding: 37 37 75
Width: 670
VWidth: 0
Flags: W
LayerCount: 2
Fore
SplineSet
390 0 m 25
 394 202 l 25
 564 220 l 25
 588 8 l 25
 390 0 l 25
255 520 m 25
 75 520 l 25
 73 762 l 25
 309 716 l 25
 255 520 l 25
11 102 m 29
 147 232 l 29
 493 724 l 29
 653 640 l 29
 381 318 l 29
 93 0 l 29
 11 102 l 29
EndSplineSet
Validated: 1
EndChar

StartChar: ampersand
Encoding: 38 38 76
Width: 626
VWidth: 0
Flags: W
LayerCount: 2
Fore
SplineSet
223 248 m 25
 161 144 l 25
 191 112 l 25
 269 124 l 25
 283 154 l 25
 223 248 l 25
181 514 m 25
 221 460 l 25
 279 520 l 25
 181 514 l 25
419 282 m 25
 467 444 l 25
 609 348 l 25
 491 202 l 25
 585 106 l 25
 491 20 l 25
 403 122 l 25
 343 12 l 25
 119 14 l 25
 11 128 l 25
 131 372 l 25
 67 520 l 25
 215 662 l 25
 369 554 l 25
 321 394 l 25
 419 282 l 25
EndSplineSet
Validated: 1
EndChar

StartChar: quotesingle
Encoding: 39 39 77
Width: 184
VWidth: 0
Flags: W
HStem: 439 267
VStem: 25.4658 135.534<635.192 697.583>
LayerCount: 2
Fore
SplineSet
161 706 m 29
 135 443 l 29
 36 439 l 29
 25.4658 697.583 l 29
 161 706 l 29
EndSplineSet
Validated: 1
EndChar

StartChar: backslash
Encoding: 92 92 78
Width: 507
VWidth: 0
Flags: W
LayerCount: 2
Fore
SplineSet
9 736 m 29
 9 798 l 29
 149 796 l 29
 215 640 l 29
 488 56 l 29
 471 0 l 29
 297 16 l 29
 217 252 l 29
 9 736 l 29
EndSplineSet
Validated: 1
EndChar

StartChar: asterisk
Encoding: 42 42 79
Width: 538
VWidth: 0
Flags: W
LayerCount: 2
Fore
SplineSet
137 258 m 29
 -11 290 l 29
 53 456 l 29
 189 386 l 29
 157 566 l 29
 355 542 l 29
 299 382 l 29
 461 452 l 29
 515 296 l 29
 371 250 l 29
 499 164 l 29
 355 22 l 29
 239 168 l 29
 137 22 l 29
 7 120 l 29
 137 258 l 29
EndSplineSet
Validated: 1
EndChar

StartChar: plus
Encoding: 43 43 80
Width: 524
VWidth: 0
Flags: W
HStem: 206 152<353 461.5>
VStem: 185 170<378 550> 191 164<12 204>
LayerCount: 2
Fore
SplineSet
197 204 m 29xa0
 9 190 l 29
 15 382 l 29
 185 378 l 29
 185 550 l 29xc0
 355 554 l 29
 353 358 l 29
 508 368 l 29
 515 206 l 29
 349 206 l 29
 355 10 l 29
 191 12 l 29
 197 204 l 29xa0
EndSplineSet
Validated: 1
EndChar

StartChar: comma
Encoding: 44 44 81
Width: 184
VWidth: 0
Flags: W
HStem: -118.6 267
VStem: 16.6992 135.533<77.5923 139.983>
LayerCount: 2
Fore
SplineSet
152.232 148.4 m 25
 126.232 -114.6 l 25
 27.2324 -118.6 l 25
 16.6992 139.983 l 25
 152.232 148.4 l 25
EndSplineSet
Validated: 1
EndChar

StartChar: hyphen
Encoding: 45 45 82
Width: 423
VWidth: 0
Flags: W
HStem: 142 122<9 81.3947>
LayerCount: 2
Fore
SplineSet
9 264 m 29
 404 284 l 29
 402 104 l 29
 9 142 l 29
 9 264 l 29
EndSplineSet
Validated: 1
EndChar

StartChar: period
Encoding: 46 46 83
Width: 188
VWidth: 0
Flags: W
HStem: 12 166
VStem: 15 152
LayerCount: 2
Fore
SplineSet
35 12 m 25
 15 168 l 25
 167 178 l 25
 155 24 l 25
 35 12 l 25
EndSplineSet
Validated: 1
EndChar

StartChar: slash
Encoding: 47 47 84
Width: 507
VWidth: 0
Flags: W
LayerCount: 2
Fore
SplineSet
9 68 m 29
 217 552 l 29
 297 788 l 29
 471 804 l 29
 488 748 l 29
 215 164 l 29
 149 8 l 29
 9 6 l 29
 9 68 l 29
EndSplineSet
Validated: 1
EndChar

StartChar: parenleft
Encoding: 40 40 85
Width: 330
VWidth: 0
Flags: W
VStem: 7 299
LayerCount: 2
Fore
SplineSet
13 513 m 29
 171 796 l 25
 231 794 l 25
 306 698 l 25
 134 475 l 29
 154 98 l 29
 302 -89 l 25
 183 -193 l 25
 137 -189 l 25
 7 50 l 29
 13 513 l 29
EndSplineSet
Validated: 1
EndChar

StartChar: parenright
Encoding: 41 41 86
Width: 330
VWidth: 0
Flags: W
VStem: 13 299
LayerCount: 2
Fore
SplineSet
306 495 m 25
 312 63 l 25
 182 -186 l 25
 136 -190 l 25
 17 -86 l 25
 165 111 l 25
 185 457 l 25
 13 698 l 25
 88 794 l 25
 148 796 l 25
 306 495 l 25
EndSplineSet
Validated: 1
EndChar

StartChar: asciicircum
Encoding: 94 94 87
Width: 484
VWidth: 0
Flags: W
HStem: 486.8 235.2
LayerCount: 2
Fore
SplineSet
9 556 m 29
 175 722 l 21
 301 710 l 5
 463 536 l 13
 307 496 l 29
 229 546 l 29
 137 486.8 l 29
 9 556 l 29
EndSplineSet
Validated: 1
EndChar

StartChar: bracketleft
Encoding: 91 91 88
Width: 398
VWidth: 0
Flags: W
HStem: 595 185.5<253.809 370.74>
VStem: 35.0596 139.92<225.16 346.239>
LayerCount: 2
Fore
SplineSet
9.62012 -173.5 m 9
 35.0596 376.5 l 25
 7.5 791.5 l 25
 389.1 780.5 l 17
 370.02 595 l 1
 204.005 605 l 1
 174.98 264 l 1
 186.145 -10 l 5
 357.3 10 l 5
 376.38 -179.5 l 1
 9.62012 -173.5 l 9
EndSplineSet
Validated: 1
EndChar

StartChar: bracketright
Encoding: 93 93 89
Width: 398
VWidth: 0
Flags: W
HStem: 592.301 186.899<29.8523 140.616>
VStem: 218.22 134.64<212.094 341.663>
LayerCount: 2
Fore
SplineSet
377.34 -179.064 m 17
 24.4199 -185.16 l 1
 42.7803 25.6602 l 1
 207.478 5.33984 l 1
 218.22 254.436 l 1
 190.291 602.46 l 1
 30.54 592.301 l 1
 12.1797 779.2 l 9
 379.38 790.376 l 25
 352.86 368.736 l 25
 377.34 -179.064 l 17
EndSplineSet
Validated: 1
EndChar

StartChar: bar
Encoding: 124 124 90
Width: 220
VWidth: 0
Flags: W
HStem: 768 20G<19.2093 184>
VStem: 44 132<202.542 473.769>
LayerCount: 2
Fore
SplineSet
18 788 m 29
 184 785.2 l 29
 176 268 l 29
 202 -175.8 l 29
 20 -175 l 29
 44 358 l 29
 18 788 l 29
EndSplineSet
Validated: 1
EndChar

StartChar: asciitilde
Encoding: 126 126 91
Width: 509
VWidth: 0
Flags: W
HStem: 94 192
LayerCount: 2
Fore
SplineSet
69 114 m 25
 13 214 l 25
 95 286 l 25
 215 278 l 25
 317 218 l 25
 387 260 l 25
 480 190 l 25
 479 172 l 25
 359 94 l 25
 261 98 l 25
 147 158 l 25
 69 114 l 25
EndSplineSet
Validated: 1
EndChar

StartChar: braceleft
Encoding: 123 123 92
Width: 380
VWidth: 0
Flags: W
HStem: 638 156<231 344>
LayerCount: 2
Fore
SplineSet
137 782 m 25
 337 794 l 25
 361 770 l 25
 351 638 l 25
 231 634 l 25
 187 306 l 25
 247 -18 l 25
 325 -26 l 25
 319 -172 l 25
 299 -184 l 25
 133 -164 l 25
 83 -70 l 25
 73 172 l 25
 11 298 l 25
 73 414 l 25
 77 726 l 25
 137 782 l 25
EndSplineSet
Validated: 1
EndChar

StartChar: braceright
Encoding: 125 125 93
Width: 380
VWidth: 0
Flags: W
HStem: 638 156<29 142>
LayerCount: 2
Fore
SplineSet
236 782 m 29
 296 726 l 29
 300 414 l 29
 362 298 l 29
 300 172 l 29
 290 -70 l 29
 240 -164 l 29
 74 -184 l 29
 54 -172 l 29
 48 -26 l 29
 126 -18 l 29
 186 306 l 29
 142 634 l 29
 22 638 l 29
 12 770 l 29
 36 794 l 29
 236 782 l 29
EndSplineSet
Validated: 1
EndChar

StartChar: acute
Encoding: 180 180 96
Width: 1646
VWidth: 0
Flags: HW
LayerCount: 2
Fore
SplineSet
121 510 m 29
 405 550 l 29
 397 691 l 5
 115 601 l 5
 121 510 l 29
EndSplineSet
EndChar
